<svg width="48" height="48" viewBox="0 0 48 48" fill="none" xmlns="http://www.w3.org/2000/svg">
<path fill-rule="evenodd" clip-rule="evenodd" d="M0 15.936C0 2.8127 2.8127 0 15.936 0H32.064C45.1873 0 48 2.8127 48 15.936V32.064C48 45.1873 45.1873 48 32.064 48H15.936C2.8127 48 0 45.1873 0 32.064V15.936ZM30.6 21.8667L27.5333 18.6667L23.8 22.4L27 25.4667L16.4667 36L20.0667 39.7333L34.3333 25.4667L30.6 21.8667ZM23.8 25.6L20.0667 29.3333L17 26.1333L13.2667 22.5333L27.5333 8.26667L31.1333 12L20.6 22.5333L23.8 25.6Z" fill="currentColor"/>
</svg>
